<svg width="217" height="217" viewBox="0 0 217 217" fill="none" xmlns="http://www.w3.org/2000/svg">
<path d="M108.5 6C51 6 6 51 6 108H83C83 94.0636 94.0024 83 108.061 83C121.998 83 133 93.9413 133 108H210.5C210.5 50.5 165.5 6 108.5 6Z" fill="#7EBEFB" stroke="#777777"/>
<path d="M6 108C6 51 51 6 108.5 6C165.5 6 210.5 51 210.5 108.5C210.5 165.5 165.5 210.5 108 210.5C51 210.5 6 165.5 6 108ZM6 108H83M133 108H210.5M83 107.939C83 94.0024 94.0024 83 108.061 83C121.998 83 133 94.0024 133 108.061C133 121.998 121.998 133 107.939 133C94.0024 133 83 121.998 83 107.939Z" stroke="#777777" stroke-width="12"/>
</svg>
